<?xml version="1.0" standalone="no"?>
<!DOCTYPE svg PUBLIC "-//W3C//DTD SVG 20010904//EN"
 "http://www.w3.org/TR/2001/REC-SVG-20010904/DTD/svg10.dtd">
<svg version="1.0" xmlns="http://www.w3.org/2000/svg"
 width="500.000000pt" height="500.000000pt" viewBox="0 0 500.000000 500.000000"
 preserveAspectRatio="xMidYMid meet">

<g transform="translate(0.000000,500.000000) scale(0.100000,-0.100000)"
fill="#000000" stroke="none">
<path d="M424 3335 c-3 -14 -4 -229 -2 -477 5 -510 5 -508 80 -572 64 -55 81
-57 553 -54 374 3 430 5 430 18 0 13 -59 16 -450 20 -483 5 -480 5 -528 58
-44 48 -46 73 -47 565 0 406 -2 467 -15 467 -8 0 -17 -11 -21 -25z"/>
<path d="M1720 2881 c0 -313 4 -489 11 -508 31 -84 139 -143 263 -143 125 0
213 46 255 133 20 42 21 58 21 438 0 365 1 397 19 429 68 129 309 129 376 -1
12 -23 15 -95 15 -415 0 -276 3 -398 12 -428 17 -56 74 -109 144 -136 122 -46
295 -11 357 72 46 61 48 84 45 573 -3 429 -4 460 -20 463 -17 3 -18 -24 -18
-468 0 -373 -3 -477 -14 -503 -17 -42 -74 -91 -123 -108 -55 -18 -150 -16
-210 4 -55 19 -118 78 -128 119 -3 13 -6 203 -7 424 l-3 400 -27 41 c-75 114
-301 128 -400 25 -20 -20 -41 -55 -47 -77 -7 -25 -11 -180 -11 -425 0 -381 -1
-385 -23 -425 -16 -29 -38 -48 -81 -70 -51 -26 -70 -30 -136 -29 -121 1 -205
52 -230 142 -6 23 -10 211 -10 495 0 399 -2 457 -15 457 -13 0 -15 -60 -15
-479z"/>
<path d="M3630 3334 c-48 -21 -97 -70 -128 -129 l-27 -50 0 -370 c0 -358 1
-371 21 -415 26 -53 62 -93 107 -117 29 -16 75 -18 495 -21 459 -3 462 -3 462
18 0 20 -4 20 -447 20 -414 0 -451 2 -489 19 -90 41 -114 111 -114 328 l0 153
443 0 c277 0 456 4 480 11 50 14 102 61 135 123 24 46 27 61 27 156 0 90 -3
112 -24 153 -29 58 -74 105 -118 123 -50 21 -774 19 -823 -2z m816 -36 c73
-40 114 -128 114 -244 0 -108 -43 -193 -114 -225 -38 -17 -74 -19 -488 -19
l-448 0 0 148 c0 165 11 218 55 277 31 40 72 65 125 76 19 4 190 7 380 6 305
-2 349 -4 376 -19z"/>
<path d="M3010 1820 c0 -6 7 -22 16 -35 15 -23 15 -27 0 -50 -19 -29 -20 -35
-5 -35 6 0 19 10 29 22 l17 22 7 -22 c4 -13 16 -22 27 -22 20 0 20 1 -2 31
l-22 31 22 29 c19 25 19 29 5 29 -9 0 -23 -8 -31 -17 -10 -13 -16 -15 -19 -5
-8 17 -44 36 -44 22z"/>
<path d="M3813 1820 c-36 -15 -29 -48 12 -66 19 -8 35 -19 35 -24 0 -14 -34
-12 -48 2 -17 17 -28 2 -12 -17 16 -19 64 -19 80 0 17 21 5 45 -30 58 -39 15
-39 31 0 24 34 -7 40 7 11 23 -22 11 -19 11 -48 0z"/>
<path d="M1220 1760 l0 -60 40 0 c22 0 40 5 40 10 0 10 -3 11 -32 14 -8 1 -14
20 -16 49 -2 33 -7 47 -18 47 -11 0 -14 -14 -14 -60z"/>
<path d="M1370 1760 l0 -60 35 0 c40 0 47 15 10 24 -14 4 -25 11 -25 16 0 6
11 10 25 10 14 0 25 4 25 10 0 5 -11 12 -25 16 -14 3 -25 10 -25 15 0 5 11 9
25 9 14 0 25 5 25 10 0 6 -16 10 -35 10 l-35 0 0 -60z"/>
<path d="M1546 1812 c-16 -26 -44 -112 -37 -112 5 0 22 7 37 15 26 13 30 13
40 0 10 -14 34 -21 34 -11 0 2 -10 29 -21 60 -20 51 -40 69 -53 48z m23 -61
c-15 -5 -22 6 -14 19 6 9 10 9 16 -1 5 -8 4 -15 -2 -18z"/>
<path d="M1690 1760 c0 -47 3 -60 15 -60 8 0 15 8 15 18 1 16 1 16 14 0 7 -10
21 -18 30 -18 15 0 15 2 2 23 -13 19 -13 25 -1 41 22 29 2 56 -40 56 l-35 0 0
-60z m60 25 c0 -8 -7 -15 -15 -15 -8 0 -15 7 -15 15 0 8 7 15 15 15 8 0 15 -7
15 -15z"/>
<path d="M1850 1760 c0 -66 17 -83 22 -22 l3 37 20 -37 c29 -57 45 -49 45 22
0 63 -16 84 -22 28 l-3 -33 -20 33 c-30 50 -45 42 -45 -28z"/>
<path d="M2110 1810 c0 -5 5 -32 11 -60 13 -60 37 -65 53 -12 12 42 22 41 30
-3 5 -25 12 -35 26 -35 14 0 20 10 25 43 3 23 9 50 11 60 4 11 0 17 -10 17
-10 0 -18 -14 -22 -37 l-7 -38 -12 35 c-16 49 -42 51 -51 5 -7 -39 -24 -31
-24 13 0 13 -6 22 -15 22 -8 0 -15 -4 -15 -10z"/>
<path d="M2340 1760 c0 -33 4 -60 10 -60 6 0 10 27 10 60 0 33 -4 60 -10 60
-6 0 -10 -27 -10 -60z"/>
<path d="M2430 1810 c0 -5 7 -10 15 -10 11 0 15 -12 15 -50 0 -38 4 -50 15
-50 11 0 15 12 15 50 0 43 3 50 20 50 11 0 20 5 20 10 0 6 -22 10 -50 10 -27
0 -50 -4 -50 -10z"/>
<path d="M2590 1760 c0 -47 3 -60 15 -60 9 0 15 9 15 25 0 18 5 25 20 25 15 0
20 -7 20 -25 0 -16 6 -25 15 -25 12 0 15 13 15 60 0 47 -3 60 -15 60 -9 0 -15
-9 -15 -23 0 -16 -6 -23 -20 -23 -14 0 -20 7 -20 23 0 14 -6 23 -15 23 -12 0
-15 -13 -15 -60z"/>
<path d="M2860 1760 l0 -60 41 0 c28 0 39 4 37 13 -3 6 -10 13 -16 13 -7 1
-16 2 -22 3 -19 2 -10 21 10 21 11 0 20 5 20 11 0 6 -9 13 -20 16 -28 7 -25
23 5 23 14 0 25 5 25 10 0 6 -18 10 -40 10 l-40 0 0 -60z"/>
<path d="M3190 1761 c0 -34 4 -61 10 -61 6 0 10 9 10 19 0 12 11 23 31 30 25
9 30 15 27 38 -3 24 -8 28 -40 31 l-38 3 0 -60z m50 24 c0 -8 -7 -15 -15 -15
-8 0 -15 7 -15 15 0 8 7 15 15 15 8 0 15 -7 15 -15z"/>
<path d="M3340 1760 l0 -60 36 0 c24 0 34 4 32 12 -3 7 -13 13 -23 13 -10 0
-20 6 -22 13 -3 7 5 12 21 12 33 0 34 16 1 24 -14 4 -25 11 -25 16 0 6 11 10
25 10 14 0 25 5 25 10 0 6 -16 10 -35 10 l-35 0 0 -60z"/>
<path d="M3480 1760 c0 -47 3 -60 15 -60 9 0 15 9 15 22 l0 22 16 -22 c8 -12
22 -22 31 -22 14 0 14 3 -1 25 -9 14 -12 25 -7 25 16 0 24 40 11 55 -7 8 -28
15 -46 15 l-34 0 0 -60z m60 25 c0 -8 -7 -15 -15 -15 -8 0 -15 7 -15 15 0 8 7
15 15 15 8 0 15 -7 15 -15z"/>
<path d="M3630 1810 c0 -5 7 -10 15 -10 11 0 15 -12 15 -50 0 -38 4 -50 15
-50 11 0 15 12 15 50 0 43 3 50 20 50 11 0 20 5 20 10 0 6 -22 10 -50 10 -27
0 -50 -4 -50 -10z"/>
</g>
</svg>
